<svg width="19" height="18" viewBox="0 0 19 18" fill="none" xmlns="http://www.w3.org/2000/svg">
<path d="M18.3594 8.79917C18.3594 9.74357 17.3818 10.5222 17.1052 11.3745C16.8183 12.2579 17.1416 13.4604 16.6066 14.1954C16.0662 14.9379 14.8191 14.9996 14.0765 15.54C13.3412 16.075 12.9002 17.2453 12.0172 17.532C11.1648 17.8088 10.1242 17.1302 9.17985 17.1302C8.23544 17.1302 7.19486 17.8085 6.34252 17.532C5.45918 17.245 5.01815 16.075 4.28287 15.54C3.54032 14.9996 2.29314 14.9379 1.75276 14.1954C1.21776 13.4601 1.5411 12.2579 1.25414 11.3745C0.977306 10.5222 0 9.74389 0 8.79917C0 7.85477 0.977623 7.07615 1.25414 6.22382C1.54078 5.34048 1.21776 4.1379 1.75276 3.40295C2.29314 2.6604 3.54032 2.5987 4.28287 2.05832C5.01815 1.52332 5.45918 0.353018 6.34221 0.0663752C7.19454 -0.21046 8.23513 0.468181 9.17953 0.468181C10.1239 0.468181 11.1645 -0.210143 12.0168 0.0663752C12.9002 0.353018 13.3412 1.52332 14.0765 2.05832C14.8191 2.5987 16.0662 2.6604 16.6066 3.40295C17.1416 4.13822 16.8183 5.34048 17.1052 6.22382C17.3818 7.07615 18.3594 7.85477 18.3594 8.79917Z" fill="#2E70FB"/>
<path d="M7.95613 12.7081C7.66189 12.7081 7.37999 12.5913 7.17181 12.3832L4.42055 9.63189C3.98742 9.19877 3.98742 8.49671 4.42055 8.06359C4.85368 7.63046 5.55573 7.63046 5.98886 8.06359L7.95613 10.0309L11.7904 6.19661C12.2235 5.76348 12.9255 5.76348 13.3587 6.19661C13.7918 6.62974 13.7918 7.33179 13.3587 7.76492L8.74044 12.3832C8.53226 12.591 8.25036 12.7081 7.95613 12.7081Z" fill="white"/>
</svg>
